<svg width="112" height="112" xmlns="http://www.w3.org/2000/svg" xmlns:xlink="http://www.w3.org/1999/xlink" xml:space="preserve" overflow="hidden"><defs><filter id="fx0" x="-10%" y="-10%" width="120%" height="120%" filterUnits="userSpaceOnUse" primitiveUnits="userSpaceOnUse"><feComponentTransfer color-interpolation-filters="sRGB"><feFuncR type="discrete" tableValues="0 0"/><feFuncG type="discrete" tableValues="0 0"/><feFuncB type="discrete" tableValues="0 0"/><feFuncA type="linear" slope="0.4" intercept="0"/></feComponentTransfer><feGaussianBlur stdDeviation="2.22222 2.22222"/></filter><clipPath id="clip1"><rect x="1004" y="297" width="112" height="112"/></clipPath><clipPath id="clip2"><rect x="5" y="12" width="104" height="86"/></clipPath><clipPath id="clip3"><rect x="0" y="0" width="114" height="114"/></clipPath><clipPath id="clip4"><rect x="8" y="8" width="98" height="98"/></clipPath><clipPath id="clip5"><rect x="8" y="8" width="98" height="98"/></clipPath><clipPath id="clip6"><rect x="8" y="8" width="98" height="98"/></clipPath><clipPath id="clip7"><rect x="1012" y="305" width="96" height="96"/></clipPath><clipPath id="clip8"><rect x="1012" y="305" width="96" height="96"/></clipPath><clipPath id="clip9"><rect x="1012" y="305" width="96" height="96"/></clipPath></defs><g clip-path="url(#clip1)" transform="translate(-1004 -297)"><g clip-path="url(#clip2)" filter="url(#fx0)" transform="translate(1003 296)"><g clip-path="url(#clip3)"><g clip-path="url(#clip4)"><g clip-path="url(#clip5)"><g clip-path="url(#clip6)"><path d="M25.38 72.3 88.62 72.3 88.62 86.58 25.38 86.58Z" fill="#843C0C"/><path d="M96.322 40.1496C94.8012 40.388 93.3078 40.7764 91.8636 41.3093 89.8743 42.1693 88.0753 43.4153 86.5708 44.9752 85.6306 45.8939 84.4162 46.4806 83.112 46.646L78.6097 47.258C78.3306 47.2959 78.0736 47.1004 78.0356 46.8213 78.0241 46.7363 78.0342 46.6497 78.065 46.5695L78.8055 44.6427C78.8923 44.4165 79.0258 44.211 79.1972 44.0399L83.8566 39.3795C84.5309 38.7028 84.5309 37.6082 83.8566 36.9315L78.9177 31.9916C78.2411 31.3173 77.1464 31.3173 76.4697 31.9916L71.5309 36.9315C70.8566 37.6082 70.8566 38.7028 71.5309 39.3795L71.6329 39.4815C72.1121 39.961 72.268 40.6759 72.0317 41.3114L69.6918 47.5548C69.468 48.1521 68.9345 48.5783 68.3026 48.6646L67.3846 48.789C67.1646 48.8189 66.9505 48.703 66.8552 48.5024L63.0792 40.5046C62.7679 39.8416 62.9066 39.0545 63.426 38.538L67.3346 34.6283C68.0089 33.9517 68.0089 32.857 67.3346 32.1803L58.224 23.0789C57.5473 22.4046 56.4526 22.4046 55.776 23.0789L46.6725 32.1824C45.9982 32.8591 45.9982 33.9537 46.6725 34.6304L50.6036 38.5625C51.1198 39.0796 51.2565 39.8648 50.9453 40.526L47.1764 48.5014C47.081 48.7024 46.8664 48.8184 46.646 48.788L45.728 48.6635C45.0964 48.577 44.5633 48.1508 44.3397 47.5538L42.008 41.3093C41.7716 40.6741 41.9269 39.9593 42.4058 39.4795L42.5078 39.3775C43.1821 38.7008 43.1821 37.6061 42.5078 36.9295L37.5771 31.9988C36.9005 31.3245 35.8058 31.3245 35.1291 31.9988L30.1985 36.9295C29.5241 37.6061 29.5241 38.7008 30.1985 39.3775L34.8282 44.0083C35.0003 44.1791 35.1342 44.3846 35.2209 44.6111L35.9717 46.5674C36.0728 46.8303 35.9417 47.1254 35.6788 47.2266 35.5986 47.2574 35.512 47.2675 35.427 47.2559L30.888 46.6399C29.5808 46.4764 28.363 45.89 27.42 44.9701 25.9164 43.4128 24.1193 42.1686 22.1323 41.3093 20.6894 40.7767 19.1973 40.3882 17.678 40.1496 17.1222 40.0576 16.5971 40.4336 16.5051 40.9894 16.4509 41.3172 16.5597 41.6508 16.7967 41.8836 19.7711 44.6312 22.0191 48.0724 23.34 51.9 24.595 56.0923 25.2811 60.4341 25.38 64.8091L25.38 66.486C25.38 67.4437 26.1563 68.22 27.114 68.22L86.886 68.22C87.8437 68.22 88.62 67.4437 88.62 66.486L88.62 64.8091C88.7188 60.4341 89.405 56.0923 90.66 51.9 91.9812 48.0731 94.2292 44.6326 97.2033 41.8856 97.6065 41.4923 97.6145 40.8465 97.2211 40.4433 96.9876 40.2039 96.6518 40.0942 96.322 40.1496ZM36.3562 40.4882 34.0265 38.1575 36.3562 35.8279 38.6859 38.1575ZM57 37.7465 52.6629 33.4074 57 29.0673 61.3391 33.4074ZM75.3488 38.1545 77.6876 35.8156 80.0275 38.1545 77.6897 40.4964Z" fill="#843C0C"/></g></g></g></g></g><g clip-path="url(#clip7)"><g clip-path="url(#clip8)"><g clip-path="url(#clip9)"><path d="M1029 368 1091 368 1091 382 1029 382Z" fill="#843C0C"/><path d="M1098.55 336.48C1097.06 336.714 1095.6 337.095 1094.18 337.617 1092.23 338.46 1090.47 339.682 1088.99 341.211 1088.07 342.112 1086.88 342.687 1085.6 342.849L1081.19 343.449C1080.91 343.486 1080.66 343.294 1080.62 343.021 1080.61 342.938 1080.62 342.853 1080.65 342.774L1081.38 340.885C1081.46 340.663 1081.59 340.462 1081.76 340.294L1086.33 335.725C1086.99 335.062 1086.99 333.988 1086.33 333.325L1081.49 328.482C1080.82 327.821 1079.75 327.821 1079.09 328.482L1074.25 333.325C1073.58 333.988 1073.58 335.062 1074.25 335.725L1074.35 335.825C1074.82 336.295 1074.97 336.996 1074.74 337.619L1072.44 343.74C1072.22 344.326 1071.7 344.743 1071.08 344.828L1070.18 344.95C1069.97 344.979 1069.76 344.866 1069.66 344.669L1065.96 336.828C1065.65 336.178 1065.79 335.406 1066.3 334.9L1070.13 331.067C1070.79 330.404 1070.79 329.33 1070.13 328.667L1061.2 319.744C1060.54 319.083 1059.46 319.083 1058.8 319.744L1049.88 328.669C1049.21 329.332 1049.21 330.406 1049.88 331.069L1053.73 334.924C1054.24 335.431 1054.37 336.201 1054.06 336.849L1050.37 344.668C1050.28 344.865 1050.07 344.979 1049.85 344.949L1048.95 344.827C1048.33 344.742 1047.81 344.324 1047.59 343.739L1045.3 337.617C1045.07 336.994 1045.22 336.293 1045.69 335.823L1045.79 335.723C1046.45 335.06 1046.45 333.986 1045.79 333.323L1040.96 328.489C1040.29 327.828 1039.22 327.828 1038.56 328.489L1033.72 333.323C1033.06 333.986 1033.06 335.06 1033.72 335.723L1038.26 340.263C1038.43 340.431 1038.56 340.632 1038.65 340.854L1039.38 342.772C1039.48 343.03 1039.35 343.319 1039.1 343.418 1039.02 343.448 1038.93 343.458 1038.85 343.447L1034.4 342.843C1033.12 342.683 1031.92 342.108 1031 341.206 1029.53 339.679 1027.76 338.459 1025.82 337.617 1024.4 337.095 1022.94 336.714 1021.45 336.48 1020.9 336.39 1020.39 336.758 1020.3 337.303 1020.25 337.625 1020.35 337.952 1020.59 338.18 1023.5 340.874 1025.7 344.247 1027 348 1028.23 352.11 1028.9 356.367 1029 360.656L1029 362.3C1029 363.239 1029.76 364 1030.7 364L1089.3 364C1090.24 364 1091 363.239 1091 362.3L1091 360.656C1091.1 356.367 1091.77 352.11 1093 348 1094.3 344.248 1096.5 340.875 1099.42 338.182 1099.81 337.796 1099.82 337.163 1099.43 336.768 1099.2 336.533 1098.87 336.426 1098.55 336.48ZM1039.76 336.812 1037.48 334.527 1039.76 332.243 1042.05 334.527ZM1060 334.124 1055.75 329.87 1060 325.615 1064.25 329.87ZM1077.99 334.524 1080.28 332.231 1082.58 334.524 1080.28 336.82Z" fill="#843C0C"/></g></g></g></g></svg>