<svg width="46" height="60" xmlns="http://www.w3.org/2000/svg" xmlns:xlink="http://www.w3.org/1999/xlink" xml:space="preserve" overflow="hidden"><defs><filter id="fx0" x="-10%" y="-10%" width="120%" height="120%" filterUnits="userSpaceOnUse" primitiveUnits="userSpaceOnUse"><feComponentTransfer color-interpolation-filters="sRGB"><feFuncR type="discrete" tableValues="0 0"/><feFuncG type="discrete" tableValues="0 0"/><feFuncB type="discrete" tableValues="0 0"/><feFuncA type="linear" slope="0.4" intercept="0"/></feComponentTransfer><feGaussianBlur stdDeviation="1.77778 1.77778"/></filter><clipPath id="clip1"><rect x="629" y="466" width="46" height="60"/></clipPath><clipPath id="clip2"><rect x="1" y="9" width="47" height="47"/></clipPath><clipPath id="clip3"><rect x="0" y="0" width="48" height="62"/></clipPath><clipPath id="clip4"><rect x="7" y="7" width="34" height="48"/></clipPath><clipPath id="clip5"><rect x="7" y="7" width="34" height="48"/></clipPath><clipPath id="clip6"><rect x="7" y="-17" width="97" height="96"/></clipPath><clipPath id="clip7"><rect x="635" y="468" width="34" height="48"/></clipPath><clipPath id="clip8"><rect x="635" y="468" width="34" height="48"/></clipPath><clipPath id="clip9"><rect x="635" y="444" width="97" height="96"/></clipPath></defs><g clip-path="url(#clip1)" transform="translate(-629 -466)"><g clip-path="url(#clip2)" filter="url(#fx0)" transform="translate(628 465)"><g clip-path="url(#clip3)"><g clip-path="url(#clip4)"><g clip-path="url(#clip5)"><g clip-path="url(#clip6)"><path d="M93.0955 44.1948 81.5831 44.1948 77.7456 32.6824 73.9082 44.1948 62.8909 44.1948 62.3958 44.1948 51.3785 44.1948 47.541 32.6824 43.7036 44.1948 32.6863 44.1948 32.1912 44.1948 21.1739 44.1948 17.3365 32.6824 13.499 44.1948 1.98657 44.1948 10.8123 51.8697 7.35903 63.3821 17.3365 56.4747 27.3139 63.3821 23.8606 51.8697 32.4388 44.4107 41.0169 51.8697 37.5636 63.3821 47.541 56.4747 57.5185 63.3821 54.0652 51.8697 62.6433 44.4107 71.2215 51.8697 67.7682 63.3821 77.7456 56.4747 87.7231 63.3821 84.2698 51.8697 93.0955 44.1948Z" fill="#FFC000" transform="matrix(1.00786 0 0 1 7.93518 -16.2485)"/></g></g></g></g></g><g clip-path="url(#clip7)"><g clip-path="url(#clip8)"><g clip-path="url(#clip9)"><path d="M93.0955 44.1948 81.5831 44.1948 77.7456 32.6824 73.9082 44.1948 62.8909 44.1948 62.3958 44.1948 51.3785 44.1948 47.541 32.6824 43.7036 44.1948 32.6863 44.1948 32.1912 44.1948 21.1739 44.1948 17.3365 32.6824 13.499 44.1948 1.98657 44.1948 10.8123 51.8697 7.35903 63.3821 17.3365 56.4747 27.3139 63.3821 23.8606 51.8697 32.4388 44.4107 41.0169 51.8697 37.5636 63.3821 47.541 56.4747 57.5185 63.3821 54.0652 51.8697 62.6433 44.4107 71.2215 51.8697 67.7682 63.3821 77.7456 56.4747 87.7231 63.3821 84.2698 51.8697 93.0955 44.1948Z" fill="#FFC000" transform="matrix(1.00786 0 0 1 635.935 444.752)"/></g></g></g></g></svg>