<svg width="112" height="112" xmlns="http://www.w3.org/2000/svg" xmlns:xlink="http://www.w3.org/1999/xlink" xml:space="preserve" overflow="hidden"><defs><filter id="fx0" x="-10%" y="-10%" width="120%" height="120%" filterUnits="userSpaceOnUse" primitiveUnits="userSpaceOnUse"><feComponentTransfer color-interpolation-filters="sRGB"><feFuncR type="discrete" tableValues="0 0"/><feFuncG type="discrete" tableValues="0 0"/><feFuncB type="discrete" tableValues="0 0"/><feFuncA type="linear" slope="0.4" intercept="0"/></feComponentTransfer><feGaussianBlur stdDeviation="2.22222 2.22222"/></filter><clipPath id="clip1"><rect x="164" y="293" width="112" height="112"/></clipPath><clipPath id="clip2"><rect x="5" y="12" width="104" height="86"/></clipPath><clipPath id="clip3"><rect x="0" y="0" width="114" height="114"/></clipPath><clipPath id="clip4"><rect x="8" y="8" width="98" height="98"/></clipPath><clipPath id="clip5"><rect x="8" y="8" width="98" height="98"/></clipPath><clipPath id="clip6"><rect x="8" y="8" width="98" height="98"/></clipPath><clipPath id="clip7"><rect x="172" y="301" width="96" height="96"/></clipPath><clipPath id="clip8"><rect x="172" y="301" width="96" height="96"/></clipPath><clipPath id="clip9"><rect x="172" y="301" width="96" height="96"/></clipPath></defs><g clip-path="url(#clip1)" transform="translate(-164 -293)"><g clip-path="url(#clip2)" filter="url(#fx0)" transform="translate(163 292)"><g clip-path="url(#clip3)"><g clip-path="url(#clip4)"><g clip-path="url(#clip5)"><g clip-path="url(#clip6)"><path d="M25.38 72.3 88.62 72.3 88.62 86.58 25.38 86.58Z" fill="#7F7F7F"/><path d="M96.322 40.1496C94.8012 40.388 93.3078 40.7764 91.8636 41.3093 89.8743 42.1693 88.0753 43.4153 86.5708 44.9752 85.6306 45.8939 84.4162 46.4806 83.112 46.646L78.6097 47.258C78.3306 47.2959 78.0736 47.1004 78.0357 46.8213 78.0241 46.7363 78.0342 46.6497 78.065 46.5695L78.8055 44.6427C78.8923 44.4165 79.0258 44.211 79.1972 44.0399L83.8566 39.3795C84.5309 38.7028 84.5309 37.6082 83.8566 36.9315L78.9177 31.9916C78.2411 31.3173 77.1464 31.3173 76.4697 31.9916L71.5309 36.9315C70.8566 37.6082 70.8566 38.7028 71.5309 39.3795L71.6329 39.4815C72.1121 39.961 72.268 40.6759 72.0317 41.3114L69.6918 47.5548C69.4681 48.1521 68.9345 48.5783 68.3026 48.6646L67.3846 48.789C67.1646 48.8189 66.9505 48.703 66.8552 48.5024L63.0792 40.5046C62.7679 39.8416 62.9066 39.0545 63.426 38.538L67.3346 34.6283C68.009 33.9517 68.009 32.857 67.3346 32.1803L58.224 23.0789C57.5473 22.4046 56.4527 22.4046 55.776 23.0789L46.6725 32.1824C45.9982 32.8591 45.9982 33.9537 46.6725 34.6304L50.6036 38.5625C51.1198 39.0796 51.2565 39.8648 50.9453 40.526L47.1764 48.5014C47.081 48.7024 46.8664 48.8184 46.646 48.788L45.728 48.6635C45.0964 48.577 44.5633 48.1508 44.3398 47.5538L42.008 41.3093C41.7716 40.6741 41.9269 39.9593 42.4058 39.4795L42.5078 39.3775C43.1822 38.7008 43.1822 37.6061 42.5078 36.9295L37.5772 31.9988C36.9005 31.3245 35.8058 31.3245 35.1292 31.9988L30.1985 36.9295C29.5242 37.6061 29.5242 38.7008 30.1985 39.3775L34.8283 44.0083C35.0003 44.1791 35.1343 44.3846 35.221 44.6111L35.9717 46.5674C36.0729 46.8303 35.9417 47.1254 35.6788 47.2266 35.5987 47.2574 35.5121 47.2675 35.427 47.2559L30.888 46.6399C29.5809 46.4764 28.363 45.89 27.42 44.9701 25.9164 43.4128 24.1193 42.1686 22.1323 41.3093 20.6894 40.7767 19.1974 40.3882 17.678 40.1496 17.1222 40.0576 16.5971 40.4336 16.5051 40.9894 16.4509 41.3172 16.5597 41.6508 16.7967 41.8836 19.7711 44.6312 22.0191 48.0724 23.34 51.9 24.595 56.0923 25.2812 60.4341 25.38 64.8091L25.38 66.486C25.38 67.4437 26.1563 68.22 27.114 68.22L86.886 68.22C87.8437 68.22 88.62 67.4437 88.62 66.486L88.62 64.8091C88.7188 60.4341 89.405 56.0923 90.66 51.9 91.9812 48.0731 94.2292 44.6326 97.2033 41.8856 97.6065 41.4923 97.6146 40.8465 97.2211 40.4433 96.9877 40.2039 96.6518 40.0942 96.322 40.1496ZM36.3562 40.4882 34.0265 38.1575 36.3562 35.8279 38.6859 38.1575ZM57 37.7465 52.663 33.4074 57 29.0673 61.3391 33.4074ZM75.3488 38.1545 77.6876 35.8156 80.0275 38.1545 77.6897 40.4964Z" fill="#7F7F7F"/></g></g></g></g></g><g clip-path="url(#clip7)"><g clip-path="url(#clip8)"><g clip-path="url(#clip9)"><path d="M189 364 251 364 251 378 189 378Z" fill="#7F7F7F"/><path d="M258.551 332.48C257.06 332.714 255.596 333.095 254.18 333.617 252.23 334.46 250.466 335.682 248.991 337.211 248.069 338.112 246.879 338.687 245.6 338.849L241.186 339.449C240.912 339.486 240.66 339.294 240.623 339.021 240.612 338.938 240.622 338.853 240.652 338.774L241.378 336.885C241.463 336.663 241.594 336.462 241.762 336.294L246.33 331.725C246.991 331.062 246.991 329.988 246.33 329.325L241.488 324.482C240.825 323.821 239.751 323.821 239.088 324.482L234.246 329.325C233.585 329.988 233.585 331.062 234.246 331.725L234.346 331.825C234.816 332.295 234.969 332.996 234.737 333.619L232.443 339.74C232.224 340.326 231.701 340.743 231.081 340.828L230.181 340.95C229.965 340.979 229.755 340.866 229.662 340.669L225.96 332.828C225.655 332.178 225.791 331.406 226.3 330.9L230.132 327.067C230.793 326.404 230.793 325.33 230.132 324.667L221.2 315.744C220.537 315.083 219.463 315.083 218.8 315.744L209.875 324.669C209.214 325.332 209.214 326.406 209.875 327.069L213.729 330.924C214.235 331.431 214.369 332.201 214.064 332.849L210.369 340.668C210.275 340.865 210.065 340.979 209.849 340.949L208.949 340.827C208.33 340.742 207.807 340.324 207.588 339.739L205.302 333.617C205.07 332.994 205.223 332.293 205.692 331.823L205.792 331.723C206.453 331.06 206.453 329.986 205.792 329.323L200.958 324.489C200.295 323.828 199.221 323.828 198.558 324.489L193.724 329.323C193.063 329.986 193.063 331.06 193.724 331.723L198.263 336.263C198.432 336.431 198.563 336.632 198.648 336.854L199.384 338.772C199.483 339.03 199.355 339.319 199.097 339.418 199.018 339.448 198.933 339.458 198.85 339.447L194.4 338.843C193.118 338.683 191.924 338.108 191 337.206 189.526 335.679 187.764 334.459 185.816 333.617 184.401 333.095 182.939 332.714 181.449 332.48 180.904 332.39 180.389 332.758 180.299 333.303 180.246 333.625 180.353 333.952 180.585 334.18 183.501 336.874 185.705 340.247 187 344 188.23 348.11 188.903 352.367 189 356.656L189 358.3C189 359.239 189.761 360 190.7 360L249.3 360C250.239 360 251 359.239 251 358.3L251 356.656C251.097 352.367 251.77 348.11 253 344 254.295 340.248 256.499 336.875 259.415 334.182 259.81 333.796 259.818 333.163 259.432 332.768 259.204 332.533 258.874 332.426 258.551 332.48ZM199.761 332.812 197.477 330.527 199.761 328.243 202.045 330.527ZM220 330.124 215.748 325.87 220 321.615 224.254 325.87ZM237.989 330.524 240.282 328.231 242.576 330.524 240.284 332.82Z" fill="#7F7F7F"/></g></g></g></g></svg>