<svg width="112" height="112" xmlns="http://www.w3.org/2000/svg" xmlns:xlink="http://www.w3.org/1999/xlink" xml:space="preserve" overflow="hidden"><defs><filter id="fx0" x="-10%" y="-10%" width="120%" height="120%" filterUnits="userSpaceOnUse" primitiveUnits="userSpaceOnUse"><feComponentTransfer color-interpolation-filters="sRGB"><feFuncR type="discrete" tableValues="0 0"/><feFuncG type="discrete" tableValues="0 0"/><feFuncB type="discrete" tableValues="0 0"/><feFuncA type="linear" slope="0.4" intercept="0"/></feComponentTransfer><feGaussianBlur stdDeviation="2.22222 2.22222"/></filter><clipPath id="clip1"><rect x="584" y="295" width="112" height="112"/></clipPath><clipPath id="clip2"><rect x="5" y="12" width="104" height="86"/></clipPath><clipPath id="clip3"><rect x="0" y="0" width="114" height="114"/></clipPath><clipPath id="clip4"><rect x="8" y="8" width="98" height="98"/></clipPath><clipPath id="clip5"><rect x="8" y="8" width="98" height="98"/></clipPath><clipPath id="clip6"><rect x="8" y="8" width="98" height="98"/></clipPath><clipPath id="clip7"><rect x="592" y="303" width="96" height="96"/></clipPath><clipPath id="clip8"><rect x="592" y="303" width="96" height="96"/></clipPath><clipPath id="clip9"><rect x="592" y="303" width="96" height="96"/></clipPath></defs><g clip-path="url(#clip1)" transform="translate(-584 -295)"><g clip-path="url(#clip2)" filter="url(#fx0)" transform="translate(583 294)"><g clip-path="url(#clip3)"><g clip-path="url(#clip4)"><g clip-path="url(#clip5)"><g clip-path="url(#clip6)"><path d="M25.38 72.3 88.62 72.3 88.62 86.58 25.38 86.58Z" fill="#FFC000"/><path d="M96.322 40.1496C94.8012 40.388 93.3078 40.7764 91.8636 41.3093 89.8743 42.1693 88.0753 43.4153 86.5708 44.9752 85.6306 45.8939 84.4162 46.4806 83.112 46.646L78.6097 47.258C78.3306 47.2959 78.0736 47.1004 78.0356 46.8213 78.0241 46.7363 78.0342 46.6497 78.065 46.5695L78.8055 44.6427C78.8923 44.4165 79.0258 44.211 79.1972 44.0399L83.8566 39.3795C84.5309 38.7028 84.5309 37.6082 83.8566 36.9315L78.9177 31.9916C78.2411 31.3173 77.1464 31.3173 76.4697 31.9916L71.5309 36.9315C70.8566 37.6082 70.8566 38.7028 71.5309 39.3795L71.6329 39.4815C72.1121 39.961 72.268 40.6759 72.0317 41.3114L69.6918 47.5548C69.468 48.1521 68.9345 48.5783 68.3026 48.6646L67.3846 48.789C67.1646 48.8189 66.9505 48.703 66.8552 48.5024L63.0792 40.5046C62.7679 39.8416 62.9066 39.0545 63.426 38.538L67.3346 34.6283C68.0089 33.9517 68.0089 32.857 67.3346 32.1803L58.224 23.0789C57.5473 22.4046 56.4526 22.4046 55.776 23.0789L46.6725 32.1824C45.9982 32.8591 45.9982 33.9537 46.6725 34.6304L50.6036 38.5625C51.1198 39.0796 51.2565 39.8648 50.9453 40.526L47.1764 48.5014C47.081 48.7024 46.8664 48.8184 46.646 48.788L45.728 48.6635C45.0964 48.577 44.5633 48.1508 44.3397 47.5538L42.008 41.3093C41.7716 40.6741 41.9269 39.9593 42.4058 39.4795L42.5078 39.3775C43.1821 38.7008 43.1821 37.6061 42.5078 36.9295L37.5771 31.9988C36.9005 31.3245 35.8058 31.3245 35.1291 31.9988L30.1985 36.9295C29.5241 37.6061 29.5241 38.7008 30.1985 39.3775L34.8282 44.0083C35.0003 44.1791 35.1342 44.3846 35.2209 44.6111L35.9717 46.5674C36.0728 46.8303 35.9417 47.1254 35.6788 47.2266 35.5986 47.2574 35.512 47.2675 35.427 47.2559L30.888 46.6399C29.5808 46.4764 28.363 45.89 27.42 44.9701 25.9164 43.4128 24.1193 42.1686 22.1323 41.3093 20.6894 40.7767 19.1973 40.3882 17.678 40.1496 17.1222 40.0576 16.5971 40.4336 16.5051 40.9894 16.4509 41.3172 16.5597 41.6508 16.7967 41.8836 19.7711 44.6312 22.0191 48.0724 23.34 51.9 24.595 56.0923 25.2811 60.4341 25.38 64.8091L25.38 66.486C25.38 67.4437 26.1563 68.22 27.114 68.22L86.886 68.22C87.8437 68.22 88.62 67.4437 88.62 66.486L88.62 64.8091C88.7188 60.4341 89.405 56.0923 90.66 51.9 91.9812 48.0731 94.2292 44.6326 97.2033 41.8856 97.6065 41.4923 97.6145 40.8465 97.2211 40.4433 96.9876 40.2039 96.6518 40.0942 96.322 40.1496ZM36.3562 40.4882 34.0265 38.1575 36.3562 35.8279 38.6859 38.1575ZM57 37.7465 52.6629 33.4074 57 29.0673 61.3391 33.4074ZM75.3488 38.1545 77.6876 35.8156 80.0275 38.1545 77.6897 40.4964Z" fill="#FFC000"/></g></g></g></g></g><g clip-path="url(#clip7)"><g clip-path="url(#clip8)"><g clip-path="url(#clip9)"><path d="M609 366 671 366 671 380 609 380Z" fill="#FFC000"/><path d="M678.551 334.48C677.06 334.714 675.596 335.095 674.18 335.617 672.23 336.46 670.466 337.682 668.991 339.211 668.069 340.112 666.879 340.687 665.6 340.849L661.186 341.449C660.912 341.486 660.66 341.294 660.623 341.021 660.612 340.938 660.622 340.853 660.652 340.774L661.378 338.885C661.463 338.663 661.594 338.462 661.762 338.294L666.33 333.725C666.991 333.062 666.991 331.988 666.33 331.325L661.488 326.482C660.825 325.821 659.751 325.821 659.088 326.482L654.246 331.325C653.585 331.988 653.585 333.062 654.246 333.725L654.346 333.825C654.816 334.295 654.969 334.996 654.737 335.619L652.443 341.74C652.224 342.326 651.701 342.743 651.081 342.828L650.181 342.95C649.965 342.979 649.755 342.866 649.662 342.669L645.96 334.828C645.655 334.178 645.791 333.406 646.3 332.9L650.132 329.067C650.793 328.404 650.793 327.33 650.132 326.667L641.2 317.744C640.537 317.083 639.463 317.083 638.8 317.744L629.875 326.669C629.214 327.332 629.214 328.406 629.875 329.069L633.729 332.924C634.235 333.431 634.369 334.201 634.064 334.849L630.369 342.668C630.276 342.865 630.065 342.979 629.849 342.949L628.949 342.827C628.33 342.742 627.807 342.324 627.588 341.739L625.302 335.617C625.07 334.994 625.222 334.293 625.692 333.823L625.792 333.723C626.453 333.06 626.453 331.986 625.792 331.323L620.958 326.489C620.295 325.828 619.221 325.828 618.558 326.489L613.724 331.323C613.063 331.986 613.063 333.06 613.724 333.723L618.263 338.263C618.432 338.431 618.563 338.632 618.648 338.854L619.384 340.772C619.483 341.03 619.355 341.319 619.097 341.418 619.018 341.448 618.933 341.458 618.85 341.447L614.4 340.843C613.119 340.683 611.924 340.108 611 339.206 609.526 337.679 607.764 336.459 605.816 335.617 604.401 335.095 602.939 334.714 601.449 334.48 600.904 334.39 600.389 334.758 600.299 335.303 600.246 335.625 600.353 335.952 600.585 336.18 603.501 338.874 605.705 342.247 607 346 608.23 350.11 608.903 354.367 609 358.656L609 360.3C609 361.239 609.761 362 610.7 362L669.3 362C670.239 362 671 361.239 671 360.3L671 358.656C671.097 354.367 671.77 350.11 673 346 674.295 342.248 676.499 338.875 679.415 336.182 679.81 335.796 679.818 335.163 679.432 334.768 679.204 334.533 678.874 334.426 678.551 334.48ZM619.761 334.812 617.477 332.527 619.761 330.243 622.045 332.527ZM640 332.124 635.748 327.87 640 323.615 644.254 327.87ZM657.989 332.524 660.282 330.231 662.576 332.524 660.284 334.82Z" fill="#FFC000"/></g></g></g></g></svg>